<?xml version="1.0" encoding="iso-8859-1"?>
<!-- Generator: Adobe Illustrator 15.1.0, SVG Export Plug-In . SVG Version: 6.00 Build 0)  -->
<!DOCTYPE svg PUBLIC "-//W3C//DTD SVG 1.1//EN" "http://www.w3.org/Graphics/SVG/1.1/DTD/svg11.dtd">
<svg version="1.1" id="Layer_1" xmlns="http://www.w3.org/2000/svg" xmlns:xlink="http://www.w3.org/1999/xlink" x="0px" y="0px"
	 width="398.445px" height="90.101px" viewBox="0 0 398.445 90.101" style="enable-background:new 0 0 398.445 90.101;"
	 xml:space="preserve">
<path style="fill:#0071BC;" d="M9.816,60.577L0,89.101h18.402C14.208,81.101,9.835,71.055,9.816,60.577z"/>
<path style="fill:#0071BC;" d="M46.37,61.212c-0.189,10.262-4.462,19.889-8.57,27.889h18.129L46.37,61.212z"/>
<path style="fill:#FFFFFF;" d="M22.883,26.313h-0.106l-0.125,0.365C22.73,26.554,22.807,26.436,22.883,26.313z"/>
<g>
	<path style="fill:#0071BC;" d="M186.861,21.774L179.091,4h2.444l5.415,12.398L192.448,4h2.452L186.861,21.774z"/>
	<path style="fill:#0071BC;" d="M200.455,21.774h-2.29V4h2.29V21.774z"/>
	<path style="fill:#0071BC;" d="M214.545,21.774H205.4V4h2.338v15.356h6.808V21.774z"/>
	<path style="fill:#0071BC;" d="M220.157,21.774h-2.163V6.287h-4.028V4h9.971v2.287h-3.779V21.774z"/>
</g>
<path d="M105.759,26.313v40.834c0,6.904-2.282,12.229-6.848,15.978c-4.565,3.749-10.539,5.623-17.922,5.623
	c-7.355,0-13.293-1.874-17.816-5.623c-4.523-3.748-6.785-9.073-6.785-15.978V26.313h12.386v40.799c0,4.059,1.084,7.092,3.255,9.104
	c2.17,2.015,5.156,3.021,8.961,3.021c3.861,0,6.89-0.999,9.089-2.999c2.197-1.999,3.297-5.038,3.297-9.125V26.313H105.759z"/>
<path d="M111.344,87.861V26.313h21.136c7.524,0,13.723,2.405,18.599,7.21c4.875,4.805,7.313,10.968,7.313,18.493v10.187
	c0,7.553-2.438,13.716-7.313,18.492c-4.876,4.775-11.075,7.166-18.599,7.166H111.344z M123.688,35.825V78.35h8.158
	c4.425,0,7.891-1.493,10.399-4.477c2.506-2.983,3.761-6.885,3.761-11.698V51.913c0-4.755-1.254-8.628-3.761-11.611
	c-2.508-2.983-5.974-4.477-10.399-4.477H123.688z"/>
<path d="M175.981,87.861h-12.344V26.313h12.344V87.861z"/>
<path d="M225.612,35.825h-17.416v52.036h-12.342V35.825h-17.331v-9.512h47.089V35.825z"/>
<path d="M28.102,26.635c-4.134,6.001-12.776,20.229-12.776,33.817c0,10.571,5.198,21.648,9.46,28.648h6.623
	c4.264-7,9.467-18.095,9.467-28.648C40.875,46.836,32.238,32.63,28.102,26.635z M28.05,67.706c-4.887,0-8.847-3.964-8.847-8.843
	c0-4.889,3.959-8.85,8.847-8.85c4.892,0,8.846,3.961,8.846,8.85C36.896,63.742,32.942,67.706,28.05,67.706z"/>
<g>
	<path style="fill:#0071BC;" d="M225.667,87.996V51.61h11.171c4.765,0,8.588,1.462,11.471,4.386
		c2.882,2.924,4.323,6.702,4.323,11.333v4.973c0,4.648-1.441,8.427-4.323,11.334c-2.883,2.907-6.706,4.36-11.471,4.36H225.667z
		 M230.589,55.483v28.64h6.248c3.365,0,6.019-1.107,7.959-3.321c1.941-2.214,2.912-5.052,2.912-8.515V67.27
		c0-3.43-0.971-6.251-2.912-8.465c-1.94-2.214-4.594-3.321-7.959-3.321H230.589z"/>
	<path style="fill:#0071BC;" d="M260.706,54.034h-4.923v-5.022h4.923V54.034z M260.706,87.996h-4.923V60.957h4.923V87.996z"/>
	<path style="fill:#0071BC;" d="M280.925,80.799c0-1.083-0.412-1.975-1.236-2.674c-0.825-0.7-2.387-1.308-4.686-1.824
		c-3.282-0.716-5.752-1.685-7.41-2.907c-1.658-1.222-2.486-2.89-2.486-5.002c0-2.196,0.933-4.067,2.799-5.614s4.299-2.32,7.297-2.32
		c3.149,0,5.652,0.809,7.51,2.424c1.857,1.616,2.745,3.582,2.661,5.897l-0.05,0.15h-4.698c0-1.183-0.495-2.245-1.486-3.187
		c-0.991-0.94-2.304-1.412-3.937-1.412c-1.749,0-3.049,0.384-3.898,1.149c-0.85,0.767-1.274,1.691-1.274,2.774
		c0,1.066,0.375,1.908,1.125,2.524c0.749,0.616,2.273,1.166,4.573,1.648c3.415,0.733,5.956,1.729,7.622,2.986
		c1.665,1.259,2.499,2.945,2.499,5.061c0,2.399-0.971,4.341-2.912,5.823c-1.94,1.482-4.478,2.224-7.609,2.224
		c-3.448,0-6.164-0.874-8.146-2.624c-1.982-1.749-2.924-3.789-2.824-6.122l0.05-0.15h4.698c0.084,1.741,0.733,3.014,1.949,3.817
		c1.217,0.805,2.641,1.206,4.273,1.206c1.75,0,3.12-0.354,4.111-1.063C280.43,82.877,280.925,81.948,280.925,80.799z"/>
	<path style="fill:#0071BC;" d="M299.897,84.647c1.633,0,3.069-0.504,4.311-1.512s1.862-2.245,1.862-3.711h4.423l0.05,0.149
		c0.083,2.333-0.954,4.407-3.111,6.223c-2.157,1.816-4.669,2.724-7.534,2.724c-3.932,0-6.939-1.282-9.021-3.848
		c-2.083-2.565-3.124-5.79-3.124-9.672v-1.05c0-3.848,1.046-7.06,3.137-9.634c2.091-2.573,5.094-3.86,9.009-3.86
		c3.165,0,5.752,0.933,7.76,2.799c2.007,1.866,2.978,4.157,2.911,6.872l-0.05,0.15h-4.448c0-1.649-0.584-3.053-1.75-4.211
		s-2.641-1.737-4.423-1.737c-2.583,0-4.428,0.928-5.535,2.783c-1.108,1.855-1.662,4.131-1.662,6.826v1.049
		c0,2.762,0.55,5.063,1.649,6.901S297.298,84.647,299.897,84.647z"/>
	<path style="fill:#0071BC;" d="M311.844,74.227c0-3.998,1.083-7.293,3.249-9.884c2.165-2.59,5.106-3.886,8.821-3.886
		c3.749,0,6.71,1.291,8.884,3.873c2.175,2.583,3.262,5.882,3.262,9.896v0.55c0,4.032-1.083,7.331-3.249,9.896
		s-5.114,3.848-8.847,3.848c-3.731,0-6.685-1.286-8.858-3.86c-2.175-2.574-3.262-5.869-3.262-9.884V74.227z M316.767,74.764
		c0,2.862,0.604,5.225,1.813,7.088c1.207,1.864,3.003,2.796,5.385,2.796c2.35,0,4.132-0.932,5.349-2.796
		c1.216-1.863,1.824-4.226,1.824-7.088v-0.549c0-2.829-0.612-5.184-1.837-7.064c-1.225-1.88-3.021-2.82-5.386-2.82
		c-2.349,0-4.128,0.94-5.335,2.82c-1.208,1.881-1.813,4.235-1.813,7.064V74.764z"/>
	<path style="fill:#0071BC;" d="M347.659,80.024l0.425,1.899h0.15l0.475-1.899l6.223-19.067h5.023l-9.946,27.039h-3.724
		l-10.071-27.039h5.048L347.659,80.024z"/>
	<path style="fill:#0071BC;" d="M372.202,88.521c-3.765,0-6.76-1.253-8.983-3.761c-2.225-2.507-3.337-5.76-3.337-9.759v-1.1
		c0-3.849,1.146-7.051,3.437-9.608s5.002-3.836,8.135-3.836c3.648,0,6.405,1.1,8.271,3.299c1.865,2.199,2.799,5.131,2.799,8.796
		v3.074H364.98l-0.075,0.125c0.05,2.592,0.708,4.723,1.975,6.392c1.266,1.67,3.04,2.505,5.322,2.505
		c1.666,0,3.128-0.237,4.386-0.712c1.258-0.476,2.345-1.129,3.262-1.962l1.924,3.202c-0.966,0.956-2.24,1.752-3.823,2.39
		C376.367,88.202,374.451,88.521,372.202,88.521z M371.453,64.33c-1.649,0-3.058,0.693-4.224,2.08s-1.883,3.126-2.149,5.218
		l0.05,0.125H377.6v-0.647c0-1.927-0.517-3.537-1.55-4.832S373.485,64.33,371.453,64.33z"/>
	<path style="fill:#0071BC;" d="M397.77,65.305l-2.523-0.149c-1.3,0-2.396,0.309-3.286,0.925c-0.892,0.616-1.579,1.482-2.062,2.599
		v19.317h-4.924V60.957h4.398l0.475,3.948c0.767-1.399,1.712-2.49,2.837-3.273c1.124-0.783,2.42-1.175,3.886-1.175
		c0.366,0,0.716,0.029,1.05,0.087c0.333,0.059,0.607,0.121,0.824,0.188L397.77,65.305z"/>
</g>
</svg>
